<?xml version="1.0" standalone="no"?>
<!DOCTYPE svg PUBLIC "-//W3C//DTD SVG 20010904//EN"
 "http://www.w3.org/TR/2001/REC-SVG-20010904/DTD/svg10.dtd">
<svg version="1.0" xmlns="http://www.w3.org/2000/svg"
 width="260.000000pt" height="260.000000pt" viewBox="0 0 260.000000 260.000000"
 preserveAspectRatio="xMidYMid meet">
<metadata>
Created by potrace 1.11, written by Peter Selinger 2001-2013
</metadata>
<g transform="translate(0.000000,260.000000) scale(0.100000,-0.100000)"
fill="#000000" stroke="none">
<path d="M337 2022 c-22 -25 -21 -39 4 -52 16 -9 26 -8 44 4 29 19 118 21 132
4 5 -7 18 -40 27 -73 10 -33 21 -71 26 -85 5 -14 16 -52 25 -85 9 -33 23 -78
30 -100 7 -22 20 -67 30 -100 22 -76 34 -120 50 -170 6 -22 19 -65 28 -95 9
-30 23 -75 31 -100 32 -102 32 -109 -23 -236 -28 -65 -51 -122 -51 -126 0 -4
11 -8 25 -8 26 0 27 1 102 170 8 19 21 46 28 60 l14 25 593 5 c326 3 598 8
604 12 10 7 19 39 60 223 9 39 22 97 30 130 25 113 45 200 56 250 6 28 17 74
25 104 25 92 96 85 -810 82 -652 -2 -795 0 -804 11 -6 7 -16 31 -23 53 -6 22
-19 56 -28 75 l-17 35 -96 3 c-82 2 -98 0 -112 -16z"/>
<path d="M705 756 c-72 -32 -106 -99 -82 -159 22 -52 74 -87 130 -87 41 0 52
5 87 40 36 36 40 45 40 88 0 40 -5 53 -31 80 -17 17 -47 36 -67 42 -45 12 -40
12 -77 -4z"/>
<path d="M1820 759 c-42 -17 -78 -59 -85 -99 -14 -82 47 -150 136 -150 38 0
53 6 85 34 36 31 39 37 39 87 0 62 -21 98 -73 123 -37 18 -65 19 -102 5z"/>
<path d="M895 729 c-4 -5 1 -19 11 -30 16 -18 34 -19 404 -19 402 0 410 1 410
42 0 17 -22 18 -409 18 -279 0 -412 -3 -416 -11z"/>
</g>
</svg>
